# xmcd
#
# Track frame offsets:
#	150
#	16287
#	34832
#	52350
#	73167
#
# Disc length: 1271
#
# Revision: 1
# Processed by: cddbd v1.5.1PL0 Copyright (c) Steve Scherf et al.
# Submitted via: cdripper 1.0.7
# Normalized: r0:DSETVAR1,TDELIM( - )
#
DISCID=4604f505
DTITLE=Various Artist - Happy Now That I've Got the Blues
DYEAR=1999
DGENRE=Blues
TTITLE0=Sonny Landreth - Shootin' For the Moon
TTITLE1=John Mayhall and the Bluesbfeakers - Ain't No Brakeman
TTITLE2=Buddy Guy - Please Don't Drive Me Away
TTITLE3=Chris Duarte Group - My Way Down
TTITLE4=Etta James - I'd Rather Go Blind
EXTD=YEAR: 1999
EXTT0=
EXTT1=
EXTT2=
EXTT3=
EXTT4=
PLAYORDER=
